<?xml version="1.0" encoding="UTF-8"?>
<svg width="225px" height="145px" viewBox="0 0 225 145" version="1.1" xmlns="http://www.w3.org/2000/svg" xmlns:xlink="http://www.w3.org/1999/xlink">
    <!-- Generator: Sketch 46.2 (44496) - http://www.bohemiancoding.com/sketch -->
    <title>seduce_log</title>
    <desc>Created with Sketch.</desc>
    <defs></defs>
    <g id="Page-1" stroke="none" stroke-width="1" fill="none" fill-rule="evenodd">
        <path d="M196.23044,58.3825324 C212.985257,64.1880708 225,79.9572536 225,98.5 C225,121.972102 205.748244,141 182,141 C181.766204,141 181.532845,140.998156 181.299935,140.994481 C181.20041,140.99815 181.100421,141 181,141 L45,141 C44.7983641,141 44.5984706,140.99254 44.4005803,140.977882 C43.9355469,140.99259 43.468649,141 43,141 C19.2517558,141 0,121.972102 0,98.5 C0,75.0278981 19.2517558,56 43,56 C43.5213989,56 44.0406302,56.0091721 44.557538,56.0273619 C50.5470489,39.6804936 66.3934139,28 85,28 C87.479591,28 89.9101623,28.2074378 92.2749184,28.6057132 C101.094413,11.6947519 120.044906,0 142,0 C172.375661,0 197,22.3857625 197,50 C197,52.8564528 196.736517,55.6569603 196.23044,58.3825324 Z" id="Combined-Shape" fill="#7ED321"></path>
        <text id="S" font-family="Courier" font-size="100" font-weight="normal" fill="#FFFFFF">
            <tspan x="88.4847005" y="120">S</tspan>
        </text>
    </g>
</svg>